<?xml version="1.0" encoding="UTF-8" standalone="no"?>
<!DOCTYPE svg PUBLIC "-//W3C//DTD SVG 1.1//EN" "http://www.w3.org/Graphics/SVG/1.1/DTD/svg11.dtd">
<svg width="100%" height="100%" viewBox="0 0 116 117" version="1.1" xmlns="http://www.w3.org/2000/svg" xmlns:xlink="http://www.w3.org/1999/xlink" xml:space="preserve" xmlns:serif="http://www.serif.com/" style="fill-rule:evenodd;clip-rule:evenodd;stroke-linejoin:round;stroke-miterlimit:1.41421;">
    <g transform="matrix(1,0,0,1,-898.596,-378.394)">
        <g transform="matrix(4.5645,0,0,4.7453,895.084,335.355)">
            <g transform="matrix(34.9795,0,0,34.9795,0,33.3456)">
                <path d="M0.375,-0.027C0.357,-0.019 0.335,-0.011 0.309,-0.003C0.283,0.005 0.256,0.009 0.227,0.009C0.208,0.009 0.191,0.007 0.174,0.002C0.158,-0.003 0.144,-0.01 0.132,-0.021C0.119,-0.031 0.109,-0.044 0.102,-0.061C0.095,-0.077 0.091,-0.097 0.091,-0.12L0.091,-0.421L0.022,-0.421L0.022,-0.524L0.091,-0.524L0.091,-0.694L0.225,-0.694L0.225,-0.524L0.335,-0.524L0.335,-0.421L0.225,-0.421L0.225,-0.165C0.225,-0.146 0.23,-0.133 0.239,-0.126C0.249,-0.118 0.261,-0.114 0.275,-0.114C0.289,-0.114 0.303,-0.116 0.316,-0.121C0.329,-0.126 0.34,-0.13 0.348,-0.133L0.375,-0.027Z" style="fill:#2f5666;fill-rule:nonzero;"/>
            </g>
        </g>
        <g transform="matrix(4.58306,0,0,4.76459,948.944,313.608)">
            <g transform="matrix(29.9824,0,0,29.9824,0,29.6977)">
                <path d="M0.259,0.01C0.215,0.01 0.172,0.003 0.13,-0.011C0.088,-0.025 0.052,-0.045 0.022,-0.071L0.072,-0.155C0.104,-0.132 0.135,-0.115 0.166,-0.103C0.196,-0.092 0.226,-0.086 0.256,-0.086C0.283,-0.086 0.304,-0.091 0.319,-0.101C0.334,-0.111 0.342,-0.125 0.342,-0.144C0.342,-0.163 0.333,-0.176 0.315,-0.185C0.297,-0.194 0.268,-0.204 0.227,-0.215C0.193,-0.224 0.164,-0.233 0.14,-0.242C0.116,-0.251 0.097,-0.261 0.082,-0.272C0.067,-0.282 0.057,-0.295 0.05,-0.31C0.043,-0.324 0.04,-0.341 0.04,-0.361C0.04,-0.388 0.045,-0.412 0.056,-0.433C0.066,-0.454 0.08,-0.472 0.099,-0.488C0.118,-0.502 0.14,-0.514 0.165,-0.522C0.19,-0.53 0.217,-0.534 0.246,-0.534C0.285,-0.534 0.322,-0.528 0.357,-0.517C0.391,-0.506 0.422,-0.487 0.451,-0.462L0.397,-0.381C0.37,-0.401 0.344,-0.416 0.32,-0.425C0.295,-0.434 0.27,-0.439 0.245,-0.439C0.222,-0.439 0.203,-0.434 0.188,-0.425C0.173,-0.416 0.165,-0.401 0.165,-0.38C0.165,-0.371 0.167,-0.363 0.171,-0.357C0.174,-0.351 0.18,-0.346 0.188,-0.341C0.196,-0.336 0.206,-0.332 0.22,-0.328C0.233,-0.323 0.249,-0.319 0.268,-0.314C0.304,-0.305 0.335,-0.295 0.361,-0.286C0.386,-0.277 0.407,-0.266 0.424,-0.254C0.44,-0.242 0.452,-0.228 0.46,-0.213C0.467,-0.197 0.471,-0.178 0.471,-0.156C0.471,-0.105 0.452,-0.064 0.414,-0.035C0.376,-0.005 0.324,0.01 0.259,0.01Z" style="fill:#007092;fill-rule:nonzero;"/>
            </g>
        </g>
        <g transform="matrix(3.15062,0,0,3.15062,915.125,372.633)">
            <g transform="matrix(0.9619,0,0,1,0.632165,0)">
                <g transform="matrix(5.82342,0,0,5.82342,16.5923,32.5408)">
                    <path d="M0.221,0.01C0.177,0.01 0.144,-0.003 0.121,-0.029C0.098,-0.054 0.087,-0.085 0.087,-0.121L0.087,-0.398L0.016,-0.398L0.027,-0.5L0.087,-0.5L0.087,-0.61L0.211,-0.623L0.211,-0.5L0.321,-0.5L0.321,-0.398L0.211,-0.398L0.211,-0.172C0.211,-0.145 0.213,-0.127 0.216,-0.117C0.219,-0.106 0.225,-0.1 0.234,-0.097C0.244,-0.094 0.262,-0.092 0.287,-0.092L0.321,-0.092L0.31,0.01L0.221,0.01Z" style="fill:#4a4b4c;fill-rule:nonzero;"/>
                </g>
                <g transform="matrix(5.82342,0,0,5.82342,21.5073,32.5408)">
                    <path d="M0.058,-0.7L0.182,-0.7L0.182,-0.576L0.058,-0.576L0.058,-0.7ZM0.058,-0.5L0.182,-0.5L0.182,0L0.058,0L0.058,-0.5Z" style="fill:#4a4b4c;fill-rule:nonzero;"/>
                </g>
                <g transform="matrix(5.82342,0,0,5.82342,25.8166,32.5408)">
                    <path d="M0.29,0.01C0.235,0.01 0.187,-0.002 0.148,-0.025C0.108,-0.048 0.078,-0.079 0.058,-0.118C0.038,-0.157 0.028,-0.201 0.028,-0.249C0.028,-0.298 0.038,-0.342 0.058,-0.382C0.078,-0.421 0.108,-0.453 0.148,-0.475C0.188,-0.499 0.237,-0.51 0.294,-0.51C0.345,-0.51 0.39,-0.499 0.428,-0.478L0.418,-0.378C0.382,-0.397 0.345,-0.406 0.306,-0.406C0.259,-0.406 0.222,-0.392 0.195,-0.363C0.168,-0.334 0.155,-0.296 0.155,-0.249C0.155,-0.204 0.169,-0.166 0.196,-0.137C0.223,-0.107 0.26,-0.092 0.305,-0.092C0.343,-0.092 0.381,-0.103 0.419,-0.125L0.43,-0.02C0.412,-0.011 0.391,-0.003 0.367,0.002C0.342,0.007 0.317,0.01 0.29,0.01Z" style="fill:#4a4b4c;fill-rule:nonzero;"/>
                </g>
            </g>
            <g transform="matrix(0.9619,0,0,1,0.609009,0)">
                <g transform="matrix(5.82342,0,0,5.82342,15.9845,37.6773)">
                    <path d="M0.2,0.01C0.168,0.01 0.139,0.007 0.113,0.001C0.086,-0.005 0.059,-0.014 0.031,-0.027L0.042,-0.133C0.07,-0.116 0.096,-0.104 0.121,-0.096C0.145,-0.087 0.17,-0.083 0.196,-0.083C0.247,-0.083 0.272,-0.1 0.272,-0.133C0.272,-0.151 0.265,-0.165 0.252,-0.174C0.239,-0.184 0.215,-0.196 0.18,-0.209C0.131,-0.227 0.094,-0.248 0.071,-0.271C0.048,-0.294 0.036,-0.325 0.036,-0.364C0.036,-0.407 0.053,-0.443 0.086,-0.469C0.119,-0.497 0.164,-0.51 0.221,-0.51C0.278,-0.51 0.329,-0.497 0.376,-0.471L0.365,-0.365C0.34,-0.382 0.316,-0.396 0.294,-0.405C0.271,-0.414 0.248,-0.419 0.223,-0.419C0.202,-0.419 0.185,-0.415 0.173,-0.406C0.162,-0.397 0.156,-0.385 0.156,-0.369C0.156,-0.356 0.16,-0.346 0.167,-0.338C0.173,-0.33 0.183,-0.323 0.196,-0.317C0.209,-0.31 0.23,-0.301 0.259,-0.29C0.308,-0.271 0.343,-0.251 0.364,-0.229C0.385,-0.206 0.396,-0.176 0.396,-0.139C0.396,-0.092 0.379,-0.055 0.345,-0.029C0.311,-0.003 0.263,0.01 0.2,0.01Z" style="fill:#4a4b4c;fill-rule:nonzero;"/>
                </g>
                <g transform="matrix(5.82342,0,0,5.82342,21.3596,37.6773)">
                    <path d="M0.285,0.01C0.232,0.01 0.187,-0.002 0.148,-0.025C0.109,-0.048 0.08,-0.08 0.059,-0.119C0.038,-0.158 0.028,-0.202 0.028,-0.249C0.028,-0.296 0.038,-0.34 0.059,-0.38C0.08,-0.42 0.109,-0.452 0.148,-0.475C0.187,-0.498 0.232,-0.51 0.285,-0.51C0.338,-0.51 0.383,-0.498 0.422,-0.475C0.461,-0.452 0.49,-0.42 0.511,-0.38C0.532,-0.34 0.542,-0.296 0.542,-0.249C0.542,-0.202 0.532,-0.158 0.511,-0.119C0.49,-0.08 0.461,-0.048 0.422,-0.025C0.383,-0.002 0.338,0.01 0.285,0.01ZM0.285,-0.092C0.326,-0.092 0.358,-0.106 0.381,-0.135C0.404,-0.164 0.415,-0.202 0.415,-0.249C0.415,-0.297 0.404,-0.336 0.381,-0.365C0.358,-0.394 0.326,-0.408 0.285,-0.408C0.244,-0.408 0.213,-0.394 0.19,-0.365C0.167,-0.336 0.155,-0.297 0.155,-0.249C0.155,-0.202 0.167,-0.164 0.19,-0.135C0.213,-0.106 0.244,-0.092 0.285,-0.092Z" style="fill:#4a4b4c;fill-rule:nonzero;"/>
                </g>
                <g transform="matrix(5.82342,0,0,5.82342,27.5906,37.6773)">
                    <path d="M0.186,0.01C0.143,0.01 0.111,-0.002 0.09,-0.027C0.069,-0.051 0.058,-0.082 0.058,-0.121L0.058,-0.75L0.182,-0.75L0.182,-0.172C0.182,-0.145 0.184,-0.127 0.187,-0.116C0.19,-0.105 0.195,-0.098 0.203,-0.096C0.21,-0.093 0.223,-0.092 0.242,-0.092L0.231,0.01L0.186,0.01Z" style="fill:#4a4b4c;fill-rule:nonzero;"/>
                </g>
            </g>
        </g>
    </g>
</svg>
